<?xml version="1.0" encoding="utf-8"?>
<!DOCTYPE svg PUBLIC "-//W3C//DTD SVG 1.0//EN" "http://www.w3.org/TR/2001/REC-SVG-20010904/DTD/svg10.dtd">
<svg version="1.0" xmlns="http://www.w3.org/2000/svg" width="320px" height="360px" viewBox="0 0 320 360" preserveAspectRatio="xMidYMid meet">
 <g fill="#4d4c4c">
  <path d="M147.9 290.9 c-18.8 -1.3 -34.2 -5.3 -48.1 -12.5 -5.3 -2.8 -9.9 -6.4 -16.9 -13.3 -11.2 -11.2 -17.4 -20.9 -22.2 -35.1 -3.1 -9.4 -3.2 -9.8 -3.1 -28 0 -13.7 0.5 -20.7 1.8 -27 2.4 -11.6 7.6 -30.2 8.8 -31.7 1.8 -2.2 6.8 -1.5 10.7 1.5 22.3 17.5 48.4 28.2 65.9 27 l5.3 -0.3 -5.4 -6.8 c-8 -10 -11.5 -17.6 -12.8 -27.6 -2.4 -18.3 0.6 -28.8 11.5 -39.7 11.3 -11.2 23.7 -16.4 39.8 -16.4 9.9 0 17.8 2.3 27.4 8.1 5.5 3.3 16.2 13.1 21.5 19.6 3.8 4.6 11.5 6.6 21.7 5.8 8.9 -0.8 11.4 0 13.7 4.5 2.1 4.1 1.9 6.8 -1.1 12.8 -3.1 6.2 -14.7 17.3 -21.9 20.9 -7.6 3.9 -15.5 4.2 -23 0.9 -12.4 -5.5 -12.6 -8.3 -1.4 -23.5 2.7 -3.7 4.9 -7.5 4.9 -8.3 0 -5.8 -11.4 -18.5 -22.1 -24.5 -6.3 -3.6 -14.8 -6.3 -19.9 -6.3 -10.5 0 -24.2 6 -32.1 14.1 -7.6 7.7 -9.3 12.8 -8.7 26 0.6 12.3 2.8 17 15 31.7 4.8 5.8 8.8 11.1 8.8 11.8 0 4.6 -2.8 6.1 -14.2 7.4 -20.8 2.4 -44.5 -4.7 -67.8 -20.3 -5.9 -3.9 -8.6 -5.3 -9.1 -4.4 -1.9 3.5 -6 24.8 -6.9 35.7 -1.7 21 1.9 36.9 12 52.2 14.8 22.5 37.8 33.7 73 35.4 32.8 1.7 61.2 -8.5 80.8 -28.9 7.2 -7.5 10 -13.1 11.3 -22.4 2.3 -16.2 -4 -31.1 -21 -49.5 -7.2 -7.8 -8.3 -10.4 -5.5 -13.2 2.7 -2.7 5.4 -1.8 11.6 4.2 12.4 11.8 22.4 28.3 24.9 41 1.7 8.8 0.7 23.2 -2.1 30.5 -6.4 17 -28.7 34.9 -53.5 43.1 -14.8 5 -32.9 6.9 -51.6 5.5z m91.9 -147.8 c4.8 -2.5 14.2 -11 16.5 -15 l1.8 -3.1 -8.3 0 c-4.6 0 -9.7 -0.4 -11.4 -0.9 -2.9 -0.8 -3.2 -0.7 -4.3 2.5 -0.7 1.8 -3.2 6 -5.6 9.4 -2.5 3.3 -4.5 6.4 -4.5 6.9 0 2.7 10.8 2.8 15.8 0.2z"/>
  <path d="M192.4 130 c-2.6 -1 -5.4 -4.8 -5.4 -7.2 0 -3 2.1 -6.5 4.7 -7.7 3.6 -1.7 5.9 -1.3 8.9 1.3 6.9 5.9 0.1 17.1 -8.2 13.6z"/>
 </g>
</svg>